<svg width="112" height="112" viewBox="0 0 112 112" fill="none" xmlns="http://www.w3.org/2000/svg">
<g clip-path="url(#clip0_2419_6)">
<path d="M-196 130.685C-196 130.685 -183.808 125.032 -143.418 116.245C-92.1981 105.143 -43.0898 107.8 44.5016 84.7097C93.5418 71.7686 112 49.9729 112 49.9729C112 49.9729 104.372 76.5364 56.7616 91.2484C-3.31267 109.775 -72.1734 106.369 -143.418 119.515C-189.257 128.029 -196 130.685 -196 130.685Z" fill="#6D8590"/>
<path d="M-167.257 128.505C-167.257 128.505 -142.669 121.353 -107.796 117.471C-72.9226 113.589 -23.7462 109.911 7.85756 107.05C73.5851 101.056 101.443 81.9167 101.443 81.9167C101.443 81.9167 83.6656 99.2852 38.3715 106.641C-6.92259 113.997 -86.7492 116.994 -107.796 119.446C-128.842 121.898 -167.257 128.505 -167.257 128.505Z" fill="#6D8590"/>
<path d="M9 10H17.992L39.1355 61.4648H39.8645L61.008 10H70V72H62.9522V24.8945H62.3446L42.9024 72H36.0976L16.6554 24.8945H16.0478V72H9V10Z" fill="#6D8590"/>
</g>
<defs>
<clipPath id="clip0_2419_6">
<rect width="112" height="112" fill="white"/>
</clipPath>
</defs>
</svg>
