<svg width="698" height="324" viewBox="0 0 698 324" fill="none" xmlns="http://www.w3.org/2000/svg">
<path d="M96.3455 56.8332C95.7892 52.1356 93.5331 48.4888 89.5772 45.8928C85.6214 43.2967 80.7692 41.9987 75.0209 41.9987C70.8178 41.9987 67.14 42.6786 63.9877 44.0385C60.8663 45.3983 58.4248 47.2681 56.6632 49.6478C54.9325 52.0275 54.0671 54.7317 54.0671 57.7604C54.0671 60.2946 54.6698 62.4734 55.8751 64.2968C57.1113 66.0893 58.6875 67.5882 60.6036 68.7935C62.5197 69.9679 64.5286 70.9414 66.6301 71.7141C68.7317 72.4558 70.6632 73.0585 72.4248 73.522L82.0673 76.1181C84.5397 76.7671 87.2902 77.6633 90.3189 78.8068C93.3786 79.9503 96.2991 81.511 99.0806 83.489C101.893 85.436 104.211 87.9393 106.034 90.9989C107.858 94.0585 108.769 97.8135 108.769 102.264C108.769 107.394 107.425 112.03 104.736 116.171C102.078 120.313 98.1843 123.604 93.0541 126.045C87.9547 128.487 81.7582 129.708 74.4646 129.708C67.6654 129.708 61.778 128.611 56.8023 126.416C51.8574 124.222 47.9634 121.162 45.1201 117.237C42.3077 113.312 40.7161 108.754 40.3452 103.562H52.2128C52.5219 107.147 53.7272 110.114 55.8287 112.463C57.9612 114.78 60.65 116.511 63.895 117.655C67.1709 118.767 70.6941 119.324 74.4646 119.324C78.8531 119.324 82.7935 118.613 86.2858 117.191C89.7781 115.739 92.5441 113.73 94.5839 111.165C96.6236 108.569 97.6435 105.54 97.6435 102.078C97.6435 98.9261 96.7627 96.361 95.0011 94.383C93.2395 92.4051 90.9216 90.798 88.0474 89.5618C85.1732 88.3256 82.0673 87.2439 78.7295 86.3168L67.0473 82.979C59.6301 80.8466 53.7581 77.8024 49.4314 73.8465C45.1046 69.8907 42.9413 64.714 42.9413 58.3167C42.9413 53.001 44.3784 48.3652 47.2525 44.4093C50.1576 40.4226 54.0517 37.332 58.9347 35.1378C63.8486 32.9126 69.3343 31.8 75.3917 31.8C81.511 31.8 86.9503 32.8971 91.7097 35.0914C96.4691 37.2548 100.24 40.2217 103.021 43.9921C105.833 47.7625 107.317 52.0429 107.471 56.8332H96.3455ZM155.116 129.522C148.44 129.522 142.692 127.946 137.87 124.794C133.049 121.641 129.341 117.299 126.745 111.767C124.149 106.235 122.851 99.9151 122.851 92.8069C122.851 85.5751 124.179 79.1931 126.837 73.6611C129.526 68.0982 133.266 63.756 138.056 60.6346C142.877 57.4822 148.502 55.9061 154.93 55.9061C159.937 55.9061 164.449 56.8332 168.467 58.6875C172.484 60.5418 175.776 63.1379 178.341 66.4756C180.906 69.8134 182.498 73.7075 183.116 78.1578H172.175C171.341 74.9128 169.487 72.0386 166.612 69.5353C163.769 67.001 159.937 65.7339 155.116 65.7339C150.851 65.7339 147.111 66.8465 143.897 69.0717C140.714 71.266 138.226 74.3719 136.433 78.3896C134.672 82.3764 133.791 87.0585 133.791 92.436C133.791 97.9371 134.656 102.727 136.387 106.807C138.149 110.886 140.621 114.054 143.804 116.31C147.018 118.566 150.789 119.694 155.116 119.694C157.959 119.694 160.539 119.2 162.857 118.211C165.175 117.222 167.138 115.8 168.745 113.946C170.352 112.092 171.495 109.867 172.175 107.271H183.116C182.498 111.474 180.968 115.26 178.526 118.628C176.116 121.966 172.917 124.624 168.93 126.602C164.974 128.549 160.369 129.522 155.116 129.522ZM210.05 85.2042V128.039H199.109V33.098H210.05V67.9591H210.977C212.646 64.2814 215.149 61.3608 218.487 59.1975C221.855 57.0032 226.337 55.9061 231.93 55.9061C236.783 55.9061 241.032 56.8796 244.679 58.8266C248.326 60.7427 251.154 63.6942 253.162 67.6809C255.202 71.6368 256.222 76.6744 256.222 82.7936V128.039H245.282V83.5353C245.282 77.8797 243.814 73.5066 240.878 70.4161C237.972 67.2946 233.939 65.7339 228.778 65.7339C225.193 65.7339 221.979 66.4911 219.136 68.0055C216.323 69.5198 214.098 71.7295 212.46 74.6346C210.853 77.5397 210.05 81.0629 210.05 85.2042ZM321.111 98.9261V56.8332H332.052V128.039H321.111V115.986H320.37C318.701 119.602 316.105 122.677 312.581 125.211C309.058 127.714 304.608 128.966 299.23 128.966C294.78 128.966 290.824 127.992 287.363 126.045C283.901 124.067 281.182 121.101 279.204 117.145C277.226 113.158 276.237 108.136 276.237 102.078V56.8332H287.177V101.337C287.177 106.529 288.63 110.67 291.535 113.761C294.471 116.851 298.211 118.396 302.754 118.396C305.473 118.396 308.239 117.701 311.052 116.31C313.895 114.92 316.275 112.787 318.191 109.913C320.138 107.039 321.111 103.376 321.111 98.9261ZM352.09 128.039V56.8332H362.659V67.5882H363.401C364.699 64.065 367.048 61.2063 370.448 59.012C373.847 56.8178 377.679 55.7206 381.944 55.7206C382.748 55.7206 383.752 55.7361 384.958 55.767C386.163 55.7979 387.075 55.8443 387.693 55.9061V67.0319C387.322 66.9392 386.472 66.8001 385.143 66.6147C383.845 66.3984 382.47 66.2902 381.017 66.2902C377.556 66.2902 374.465 67.0165 371.746 68.469C369.057 69.8907 366.924 71.8686 365.348 74.4028C363.803 76.9062 363.03 79.7649 363.03 82.979V128.039H352.09ZM436.09 56.8332V66.1048H399.189V56.8332H436.09ZM409.944 39.7735H420.885V107.641C420.885 110.732 421.333 113.05 422.229 114.595C423.156 116.109 424.331 117.129 425.752 117.655C427.205 118.149 428.735 118.396 430.342 118.396C431.547 118.396 432.536 118.335 433.309 118.211C434.081 118.056 434.7 117.933 435.163 117.84L437.388 127.668C436.647 127.946 435.611 128.224 434.282 128.502C432.953 128.811 431.269 128.966 429.229 128.966C426.139 128.966 423.11 128.302 420.143 126.973C417.207 125.644 414.766 123.619 412.819 120.9C410.903 118.18 409.944 114.75 409.944 110.608V39.7735ZM481.637 129.522C474.776 129.522 468.858 128.008 463.882 124.979C458.937 121.92 455.12 117.655 452.431 112.184C449.774 106.683 448.445 100.286 448.445 92.9923C448.445 85.6987 449.774 79.2704 452.431 73.7075C455.12 68.1136 458.86 63.756 463.65 60.6346C468.471 57.4822 474.096 55.9061 480.524 55.9061C484.233 55.9061 487.895 56.5242 491.511 57.7604C495.127 58.9966 498.418 61.0054 501.385 63.7869C504.352 66.5375 506.716 70.1843 508.478 74.7273C510.24 79.2704 511.12 84.8642 511.12 91.5089V96.1446H456.233V86.6876H499.995C499.995 82.67 499.191 79.085 497.584 75.9326C496.008 72.7803 493.752 70.2924 490.816 68.469C487.911 66.6456 484.48 65.7339 480.524 65.7339C476.167 65.7339 472.396 66.8156 469.213 68.979C466.061 71.1114 463.635 73.8929 461.935 77.3234C460.235 80.7538 459.385 84.4316 459.385 88.3565V94.6612C459.385 100.039 460.312 104.597 462.167 108.337C464.052 112.045 466.663 114.873 470.001 116.82C473.339 118.736 477.217 119.694 481.637 119.694C484.511 119.694 487.107 119.293 489.425 118.489C491.774 117.655 493.798 116.418 495.498 114.78C497.198 113.112 498.511 111.041 499.438 108.569L510.008 111.535C508.895 115.12 507.025 118.273 504.399 120.992C501.772 123.681 498.527 125.783 494.663 127.297C490.8 128.781 486.458 129.522 481.637 129.522ZM527.763 128.039V56.8332H538.332V67.5882H539.074C540.372 64.065 542.721 61.2063 546.121 59.012C549.52 56.8178 553.352 55.7206 557.617 55.7206C558.421 55.7206 559.425 55.7361 560.631 55.767C561.836 55.7979 562.748 55.8443 563.366 55.9061V67.0319C562.995 66.9392 562.145 66.8001 560.816 66.6147C559.518 66.3984 558.143 66.2902 556.69 66.2902C553.229 66.2902 550.138 67.0165 547.419 68.469C544.73 69.8907 542.597 71.8686 541.021 74.4028C539.476 76.9062 538.703 79.7649 538.703 82.979V128.039H527.763Z" fill="black"/>
<path d="M151.519 153.528H160.34L181.082 204.191H181.797L202.539 153.528H211.36V214.562H204.446V168.19H203.85L184.777 214.562H178.102L159.029 168.19H158.433V214.562H151.519V153.528ZM277.676 184.045C277.676 190.482 276.513 196.045 274.189 200.734C271.864 205.422 268.676 209.038 264.623 211.581C260.57 214.124 255.941 215.396 250.735 215.396C245.53 215.396 240.901 214.124 236.848 211.581C232.795 209.038 229.606 205.422 227.281 200.734C224.957 196.045 223.795 190.482 223.795 184.045C223.795 177.608 224.957 172.045 227.281 167.356C229.606 162.667 232.795 159.051 236.848 156.508C240.901 153.965 245.53 152.694 250.735 152.694C255.941 152.694 260.57 153.965 264.623 156.508C268.676 159.051 271.864 162.667 274.189 167.356C276.513 172.045 277.676 177.608 277.676 184.045ZM270.523 184.045C270.523 178.76 269.639 174.3 267.871 170.664C266.123 167.028 263.748 164.277 260.748 162.409C257.768 160.541 254.431 159.608 250.735 159.608C247.04 159.608 243.692 160.541 240.692 162.409C237.712 164.277 235.338 167.028 233.57 170.664C231.821 174.3 230.947 178.76 230.947 184.045C230.947 189.33 231.821 193.79 233.57 197.426C235.338 201.061 237.712 203.813 240.692 205.681C243.692 207.548 247.04 208.482 250.735 208.482C254.431 208.482 257.768 207.548 260.748 205.681C263.748 203.813 266.123 201.061 267.871 197.426C269.639 193.79 270.523 189.33 270.523 184.045ZM289.738 153.528L307.857 204.906H308.572L326.692 153.528H334.44L312.029 214.562H304.4L281.989 153.528H289.738ZM343.947 214.562V153.528H380.781V160.084H351.337V180.707H378.874V187.263H351.337V208.005H381.258V214.562H343.947ZM396.606 214.562H388.857L411.268 153.528H418.897L441.308 214.562H433.56L415.321 163.184H414.844L396.606 214.562ZM399.467 190.72H430.699V197.277H399.467V190.72Z" fill="black"/>
<path d="M225.3 277.7C225.3 277.7 243.2 269.4 302.5 256.5C377.7 240.2 449.8 244.1 578.4 210.2C650.4 191.2 677.5 159.2 677.5 159.2C677.5 159.2 666.3 198.2 596.4 219.8C508.2 247 407.1 242 302.5 261.3C235.2 273.8 225.3 277.7 225.3 277.7Z" fill="black"/>
<path d="M267.5 274.5C267.5 274.5 303.6 264 354.8 258.3C406 252.6 478.2 247.2 524.6 243C621.1 234.2 662 206.1 662 206.1C662 206.1 635.9 231.6 569.4 242.4C502.9 253.2 385.7 257.6 354.8 261.2C323.9 264.8 267.5 274.5 267.5 274.5Z" fill="black"/>
</svg>
